<svg width="506" height="100" viewBox="0 0 506 100" fill="none" xmlns="http://www.w3.org/2000/svg">
<path fill-rule="evenodd" clip-rule="evenodd" d="M25 0C11.1929 0 0 11.1929 0 25V75C0 88.8071 11.1929 100 25 100H75C88.8071 100 100 88.8071 100 75V25C100 11.1929 88.8071 0 75 0H25ZM125.282 92H143.731V9.03333H125.282V92ZM200.004 34.1417C195.929 32.0311 191.053 30.9758 185.376 30.9758C179.626 30.9758 174.568 32.1403 170.202 34.4692C165.835 36.7253 162.451 40.1822 160.049 44.84C157.648 49.425 156.447 55.2836 156.447 62.4158C156.447 69.4025 157.757 75.1883 160.377 79.7733C163.07 84.2856 166.745 87.6333 171.403 89.8167C176.133 92 181.519 93.0917 187.559 93.0917C192.435 93.0917 196.547 92.7278 199.895 92C203.243 91.345 206.372 90.2533 209.283 88.725V75.0792C205.936 76.6803 202.697 77.8447 199.568 78.5725C196.438 79.3003 192.945 79.6642 189.088 79.6642C184.648 79.6642 181.228 78.4997 178.826 76.1708C176.424 73.8419 175.151 70.7125 175.005 66.7825H212.886V58.2675C212.886 52.2997 211.758 47.3144 209.502 43.3117C207.318 39.2361 204.153 36.1794 200.004 34.1417ZM178.608 46.4775C180.5 44.6581 182.865 43.7483 185.703 43.7483C187.96 43.7483 189.852 44.2578 191.38 45.2767C192.908 46.2228 194.036 47.5328 194.764 49.2067C195.565 50.8806 195.965 52.7728 195.965 54.8833H175.333C175.696 51.0261 176.788 48.2242 178.608 46.4775ZM216.817 32.0675L235.703 61.4333L215.834 92H236.685L248.148 72.5683L259.61 92H280.461L260.483 61.4333L279.588 32.0675H258.737L248.148 50.08L237.668 32.0675H216.817ZM307.268 92V32.0675H288.928V92H307.268ZM305.085 10.0158C303.12 8.85139 300.827 8.26917 298.207 8.26917C295.442 8.26917 293.076 8.85139 291.111 10.0158C289.219 11.1803 288.273 13.4364 288.273 16.7842C288.273 20.0592 289.219 22.3153 291.111 23.5525C293.076 24.7169 295.442 25.2992 298.207 25.2992C300.827 25.2992 303.12 24.7169 305.085 23.5525C307.05 22.3153 308.032 20.0592 308.032 16.7842C308.032 13.4364 307.05 11.1803 305.085 10.0158ZM333.408 89.9258C337.775 92.0364 342.942 93.0917 348.91 93.0917C353.058 93.0917 356.588 92.6914 359.499 91.8908C362.41 91.0175 365.103 89.7803 367.578 88.1792V73.1142C365.03 74.7153 362.338 75.9889 359.499 76.935C356.734 77.8811 353.75 78.3542 350.548 78.3542C348.073 78.3542 345.963 77.7719 344.216 76.6075C342.469 75.4431 341.123 73.6964 340.177 71.3675C339.231 68.9658 338.758 65.9092 338.758 62.1975C338.758 58.4858 339.194 55.3928 340.068 52.9183C341.014 50.4439 342.36 48.6244 344.107 47.46C345.853 46.2228 347.964 45.6042 350.438 45.6042C352.695 45.6042 354.914 45.9317 357.098 46.5867C359.281 47.2417 361.646 48.0786 364.193 49.0975L369.543 35.2333C367.068 33.9961 364.23 32.9772 361.028 32.1767C357.898 31.3761 354.368 30.9758 350.438 30.9758C344.543 30.9758 339.303 32.0675 334.718 34.2508C330.133 36.4342 326.531 39.8547 323.911 44.5125C321.364 49.0975 320.09 55.0289 320.09 62.3067C320.09 69.4389 321.218 75.2975 323.474 79.8825C325.803 84.3947 329.115 87.7425 333.408 89.9258ZM434.319 75.1883C435.701 71.3311 436.393 66.8917 436.393 61.87C436.393 55.2472 435.119 49.6433 432.572 45.0583C430.097 40.4733 426.677 36.98 422.31 34.5783C417.944 32.1767 412.885 30.9758 407.136 30.9758C401.023 30.9758 395.746 32.1767 391.307 34.5783C386.867 36.98 383.447 40.4733 381.045 45.0583C378.716 49.6433 377.552 55.2472 377.552 61.87C377.552 66.8917 378.28 71.3675 379.735 75.2975C381.191 79.1547 383.192 82.4297 385.739 85.1225C388.359 87.7425 391.452 89.7439 395.019 91.1267C398.657 92.4367 402.587 93.0917 406.809 93.0917C411.466 93.0917 415.578 92.4367 419.144 91.1267C422.783 89.7439 425.876 87.7061 428.424 85.0133C431.044 82.3206 433.009 79.0456 434.319 75.1883ZM397.311 71.2583C396.583 68.7111 396.219 65.5817 396.219 61.87C396.219 56.3389 397.056 52.1906 398.73 49.425C400.477 46.5867 403.206 45.1675 406.918 45.1675C409.538 45.1675 411.612 45.7861 413.14 47.0233C414.741 48.2606 415.906 50.1164 416.634 52.5908C417.361 55.0653 417.725 58.1583 417.725 61.87C417.725 65.5817 417.361 68.7111 416.634 71.2583C415.906 73.8056 414.778 75.7342 413.249 77.0442C411.721 78.2814 409.647 78.9 407.027 78.9C404.48 78.9 402.405 78.2814 400.804 77.0442C399.203 75.7342 398.039 73.8056 397.311 71.2583ZM500.032 36.2158C496.175 32.7225 491.08 30.9758 484.748 30.9758C482.128 30.9758 479.654 31.3033 477.325 31.9583C474.996 32.6133 472.922 33.5958 471.103 34.9058C469.283 36.2158 467.718 37.8533 466.408 39.8183H465.535L463.024 32.0675H449.051V92H467.5V64.7083C467.5 58.5222 468.301 53.7917 469.902 50.5167C471.503 47.1689 474.523 45.495 478.963 45.495C481.946 45.495 484.13 46.5503 485.513 48.6608C486.895 50.7714 487.587 53.9008 487.587 58.0492V92H505.927V52.9183C505.927 45.2039 503.962 39.6364 500.032 36.2158Z" fill="url(#paint0_linear_316_170)"/>
<path d="M72.8415 23.0173L79.3823 30.1006L27.0564 86.7668L20.5156 79.6835L72.8415 23.0173Z" fill="white"/>
<path d="M33.8125 44.5004L40.3532 37.4171L79.5977 79.9167L73.0569 87L33.8125 44.5004Z" fill="white"/>
<path d="M87 23.0173V33.0346H13L13 23.0173H87Z" fill="white"/>
<path d="M45.375 13H54.625V23.0173H45.375V13Z" fill="white"/>
<defs>
<linearGradient id="paint0_linear_316_170" x1="-22" y1="172.5" x2="533.5" y2="-43" gradientUnits="userSpaceOnUse">
<stop stop-color="#7F72E1"/>
<stop offset="1" stop-color="#503FC9"/>
</linearGradient>
</defs>
</svg>
