<svg width="177" height="37" viewBox="0 0 177 37" fill="none" xmlns="http://www.w3.org/2000/svg">
<path d="M14 36C11.7667 36.3333 9.63333 36.5 7.6 36.5C5.6 36.5 3.91667 35.8167 2.55 34.45C1.18333 33.0833 0.5 31.2667 0.5 29V0.999998H9.25V27.75C9.25 28.25 9.41667 28.6667 9.75 29C10.0833 29.3333 10.5 29.5 11 29.5H14V36ZM27.7422 15.25C26.4089 15.25 25.7422 15.9167 25.7422 17.25V20H34.2422V17.25C34.2422 15.9167 33.5755 15.25 32.2422 15.25H27.7422ZM41.9922 35.5C35.5589 36.1667 29.7255 36.5 24.4922 36.5C22.2255 36.5 20.4089 35.8167 19.0422 34.45C17.6755 33.0833 16.9922 31.2667 16.9922 29V17C16.9922 14.5 17.6922 12.55 19.0922 11.15C20.5255 9.71667 22.4922 9 24.9922 9H34.9922C37.4922 9 39.4422 9.71667 40.8422 11.15C42.2755 12.55 42.9922 14.5 42.9922 17V26.25H25.7422V28.25C25.7422 28.75 25.9089 29.1667 26.2422 29.5C26.5755 29.8333 26.9922 30 27.4922 30C30.7922 30 35.6255 29.75 41.9922 29.25V35.5ZM62.4844 9.5H72.2344L64.2344 22.75L72.4844 36H62.7344L58.2344 28L53.7344 36H43.9844L52.2344 22.75L44.2344 9.5H53.9844L58.2344 17.5L62.4844 9.5ZM85.4746 10.5V36H76.7246V17.25H72.9746V10.5H85.4746ZM76.7246 0.499998H85.4746V7.5H76.7246V0.499998ZM113.99 35.5C107.757 36.1667 102.257 36.5 97.4902 36.5C95.2236 36.5 93.4069 35.8167 92.0402 34.45C90.6736 33.0833 89.9902 31.2667 89.9902 29V17.5C89.9902 15 90.6902 13.05 92.0902 11.65C93.5236 10.2167 95.4902 9.5 97.9902 9.5H113.99V16.25H100.74C99.4069 16.25 98.7402 16.9167 98.7402 18.25V28C98.7402 28.5 98.9069 28.9167 99.2402 29.25C99.5736 29.5833 99.9902 29.75 100.49 29.75C103.49 29.75 107.99 29.5 113.99 29V35.5ZM144.98 28.5C144.98 31 144.264 32.9667 142.83 34.4C141.43 35.8 139.48 36.5 136.98 36.5H125.48C122.98 36.5 121.014 35.8 119.58 34.4C118.18 32.9667 117.48 31 117.48 28.5V17C117.48 14.5 118.18 12.55 119.58 11.15C121.014 9.71667 122.98 9 125.48 9H136.98C139.48 9 141.43 9.71667 142.83 11.15C144.264 12.55 144.98 14.5 144.98 17V28.5ZM136.23 17.75C136.23 16.4167 135.564 15.75 134.23 15.75H128.23C126.897 15.75 126.23 16.4167 126.23 17.75V27.75C126.23 29.0833 126.897 29.75 128.23 29.75H134.23C135.564 29.75 136.23 29.0833 136.23 27.75V17.75ZM164.225 16.25C162.458 16.25 160.458 16.5833 158.225 17.25V36H149.475V9.5H157.225L157.725 12C159.291 10.9667 160.891 10.2167 162.525 9.75C164.191 9.25 165.591 9 166.725 9H168.975C171.241 9 173.058 9.68333 174.425 11.05C175.791 12.4167 176.475 14.2333 176.475 16.5V36H167.725V18C167.725 17.5 167.558 17.0833 167.225 16.75C166.891 16.4167 166.475 16.25 165.975 16.25H164.225Z" fill="#11BE95"/>
</svg>
